# xmcd CD database file
#
# Track frame offsets:
#	150
#	23921
#	56281
#	75036
#	95950
#	109698
#	124960
#	144522
#
# Disc length: 2187 seconds
#
# Revision: 0
# Processed by: cddbd v1.5.2PL0 Copyright (c) Steve Scherf et al.
# Submitted via: CDex 1.51
#
DISCID=60088908
DTITLE=Jerry Waddel - Wall Of Blues
DYEAR=2002
DGENRE=Blues
TTITLE0=She's Rocking My Blues
TTITLE1=Cryin' In The Rain
TTITLE2=Please Don't Leave
TTITLE3=Walking In The Night
TTITLE4=Talk About Love
TTITLE5=Screwing With The Brain
TTITLE6=Guard Your Heart
TTITLE7=Come On Over
EXTD=YEAR: 2002
EXTT0=
EXTT1=
EXTT2=
EXTT3=
EXTT4=
EXTT5=
EXTT6=
EXTT7=
PLAYORDER=
